<svg xmlns="http://www.w3.org/2000/svg" width="800" height="800" viewBox="300 300 800 800" style="fill: white;">
  <path  d="M860.789063 409.628906c7.736489-.435733 7.736489-.435733 11.23828 1.480469 10.418109 10.290747 8.063369 31.845747 8.160157 45.390625-.008597 13.225272-1.478208 25.761511-5.1875 38.5l-.953125 3.339844C870.184809 510.86436 864.997603 524.52408 857 535c-.9792 1.733204-1.958158 3.466549-2.933105 5.202148-10.90161 18.370585-27.818781 34.614282-42.754395 49.610352l-2.41211 2.42627C804.094863 597.031315 799.15421 601.586635 794 606l-1.714844 1.53418C788.33938 611 788.33938 611 785 611l-.75 1.824219c-1.462668 2.545956-2.767936 3.450288-5.25 4.988281-3.444436 2.187383-6.804057 4.441123-10.125 6.8125-3.230737 2.269444-6.463884 4.394713-9.929688 6.296875-2.512214 1.392312-4.973718 2.864942-7.445312 4.328125-5.920391 3.45727-11.92546 6.726463-17.996094 9.910156-2.002258 1.051353-3.998772 2.114249-5.976562 3.210938-7.99582 4.301102-16.691479 6.939499-25.261719 9.850586-2.751039.945076-5.478248 1.947998-8.203125 2.96582C680.483814 666.117477 668.44743 668.452155 654 668l-2.339844-.050781c-10.650423-.655123-20.272165-7.189228-27.414062-14.824219-1.585176-1.970544-2.934182-3.963735-4.246094-6.125l-1.253906-1.992188c-3.061449-5.994892-3.1299-12.037039-3.183594-18.632812l-.030762-2.71167C615.60904 617.776944 616.635885 613.39163 619 608l.9375-2.25c1.39188-2.292507 3.135466-3.875048 5.0625-5.75 1.031462-1.180004 2.054865-2.36707 3.072998-3.558594 4.164871-4.780437 8.592754-9.26898 13.071533-13.753906l2.578781-2.588867c1.784524-1.789555 3.570377-3.577786 5.357499-5.364746 2.746126-2.748335 5.48413-5.504597 8.221923-8.26123 1.738444-1.741374 3.47736-3.482277 5.216797-5.222657l2.48726-2.509033 2.297164-2.287842 2.022049-2.026367C671 553 671 553 673 553l.753906-1.78125c1.420132-2.528636 2.947396-3.886484 5.183594-5.71875 2.212911-1.819964 3.991416-3.403176 5.691406-5.71875L686 538h2l.675781-1.695313c1.728608-3.00849 3.91646-4.88154 6.511719-7.179687l1.499023-1.339355c2.646174-2.355319 5.336713-4.64973 8.063477-6.910645 3.224505-2.723087 5.906598-5.80449 8.644531-9.007813C716.799254 507.907438 720.601156 504.45936 724.5 501c4.744239-4.23441 9.240245-8.671474 13.68164-13.21875 2.70637-2.750848 5.4612-5.361751 8.400391-7.863281 6.151666-5.316944 11.768654-11.201145 17.480469-16.980469C777.434465 449.407975 777.434465 449.407975 784 444l2.3125-2.3125c13.235088-13.235088 27.248297-21.837392 45.265625-26.976563 1.756943-.515747 3.494009-1.100804 5.214844-1.726562 7.701915-2.364047 16.009078-2.573235 23.996094-3.355469ZM848 424l4 1Z"/>
  <path  d="M638 720c4.057604 1.331691 6.097046 2.860283 8.815918 6.124512 4.01024 4.616993 8.191104 8.990643 12.520508 13.30957l2.053755 2.050535c1.436136 1.431542 2.873212 2.862141 4.311147 4.291876 2.290222 2.277296 4.577163 4.557843 6.863339 6.8392 4.85062 4.839273 9.705178 9.674583 14.560333 14.509307 5.63871 5.61502 11.275744 11.2317 16.908566 16.852627 2.241808 2.235376 4.48663 4.467695 6.731601 6.699894a26539.138523 26539.138523 0 0 1 4.157196 4.147186l1.86438 1.848724c3.717769 3.717321 7.225302 7.5604 10.637861 11.56027 1.448627 1.624168 2.961407 3.06036 4.575396 4.516299 2 2.25 2 2.25 1.933594 4.039063-1.335374 3.162432-3.532188 5.38729-5.871094 7.835937l-1.491455 1.590576c-6.603693 7.003532-13.333465 13.802137-20.637451 20.077393-5.54846 4.898337-10.519454 10.293534-15.34375 15.894531-2.090837 2.383656-4.31872 4.601143-6.589844 6.8125l-2.5 2.5L659 894l-2.125 2.3125C645.020258 907.394107 645.020258 907.394107 639 908c-5.421112-2.710556-9.281659-7.183326-13.480469-11.476563-2.170287-2.173652-4.377682-4.211767-6.707031-6.210937-7.67473-6.596204-7.67473-6.596204-10.8125-10.3125v-2l-1.625-.625c-3.29478-1.907504-5.968636-4.423194-8.375-7.375v-2l-1.9375-.8125C594 866 594 866 593 863c-1.323772-.685457-2.659026-1.348839-4-2-1.503106-1.34204-2.956247-2.740996-4.371094-4.175781l-2.490234-2.509766-2.576172-2.626953-2.564453-2.591797c-1.585561-1.602944-3.169053-3.207939-4.749756-4.815674-3.998626-4.055073-8.040721-8.056405-12.146728-12.002685A20944.387498 20944.387498 0 0 1 554.625 826.9375l-2.847656-2.720703-2.675781-2.626953-2.458497-2.37915C545 817 545 817 545.075196 814.897704c1.614133-3.312212 4.410173-5.642988 7.049804-8.147705 3.525657-3.386916 6.951032-6.77983 10.130508-10.497925 3.55911-4.091461 7.304557-7.94699 11.148545-11.769653l2.131149-2.131592c2.297098-2.296408 4.597705-4.589267 6.898392-6.88208a25091.725264 25091.725264 0 0 0 4.81276-4.808472c4.201373-4.197575 8.405743-8.392136 12.610763-12.58606 4.298804-4.288534 8.594743-8.579937 12.89093-12.871093C621.162577 736.799287 629.580276 728.398633 638 720Z"/>
  <path  d="M565.5625 679.5625c.919746-.01998 1.839492-.03996 2.78711-.060547 5.729362.004119 9.143586.620922 13.65039 4.498047 1.370133 1.636548 2.712027 3.298036 4 5l2 1-1 5 1.8125.6875c2.851137 1.710682 3.710022 3.345058 5.1875 6.3125 1.112115 8.00287.076839 14.561019-4.5 21.164063-5.39969 7.032661-11.700946 13.24047-17.9375 19.523437l-2.730225 2.758545-2.578369 2.565674-2.33374 2.326904C562 752 562 752 560 752l-.668457 1.658447c-1.752243 3.081366-4.118254 5.35592-6.63623 7.806397l-1.576935 1.561172c-1.659762 1.642004-3.326055 3.277161-4.993378 4.911484-1.659324 1.63158-3.317118 3.26464-4.971954 4.900772-1.027855 1.015736-2.05837 2.028788-3.09198 3.038666-2.92541 2.88508-5.52723 5.892577-8.061066 9.123062-1.302625 1.200857-2.63546 2.36999-4 3.5-3.071008 2.608645-5.502988 5.330716-8 8.5h-2l-.769531 1.796875c-1.366733 2.447102-2.747899 3.696605-4.917969 5.453125-2.808127 2.273514-5.168673 4.69433-7.509033 7.432861-3.50954 4.035934-7.20682 7.818208-11.022217 11.563233a28833.617786 28833.617786 0 0 0-4.074219 4.03711c-2.104323 2.079557-4.210238 4.157452-6.318847 6.232665-2.061029 2.030529-4.115542 4.067481-6.169434 6.105225l-1.878784 1.837997c-3.159287 3.141423-6.012363 6.336271-8.698853 9.893204-3.968098 5.213032-8.47973 9.774167-13.117676 14.389892l-2.691741 2.69754c-2.338574 2.34027-4.681909 4.675644-7.026947 7.00943-1.911482 1.90626-3.81548 3.81991-5.719569 5.73355-2.286551 2.295531-4.580724 4.583413-6.874242 6.87198l-2.572907 2.585175-2.417816 2.398712-2.109528 2.104706c-2.233872 1.965083-4.54025 3.3702-7.110687 4.85672-2.303803 1.992158-4.50582 4.068003-6.71875 6.160156-5.53599 4.464814-11.184198 4.266809-18.03125 4.339844l-2.882813.125c-8.765212.096057-13.649089-3.16802-19.92578-9.003906L365.5625 899.4375l-1.933594-2.191406C357.625421 888.967906 358.66015 876.679024 360 867c1.929583-5.362445 5.058615-8.999164 9-13l2.16211-2.266602c6.582479-6.876291 13.235826-13.718247 20.505859-19.874023 3.97142-3.42444 7.635998-7.121214 11.316406-10.851563l1.90184-1.925628c2.625456-2.662171 5.247982-5.32708 7.861344-8.00113 1.926413-1.968632 3.862063-3.927783 5.799316-5.885741l1.78363-1.840058 1.680237-1.690704 1.46112-1.490448C425.267763 798.794272 426.82137 798.52369 429 798c1.090128-1.898847 1.090128-1.898847 2-4 1.480469-1.421875 1.480469-1.421875 3.1875-2.75 3.462204-2.843182 6.301393-5.98328 9.207031-9.382813 3.334045-3.87755 7.04931-7.277892 10.855469-10.679687 10.405398-9.315012 20.650377-18.85613 30.378906-28.878906 1.941347-1.890174 3.911802-3.643455 5.96875-5.402344 5.891044-5.1096 11.271856-10.745316 16.71875-16.318604 1.387584-1.417594 2.781578-2.828905 4.175782-4.23999l2.47998-2.531006C516 712 516 712 518 712v-2c1.398438-1.375 1.398438-1.375 3.375-3 3.413724-2.888071 6.566526-5.922776 9.6875-9.125 3.770664-3.822714 7.524347-6.846366 11.9375-9.875l2.5-2.625c5.951963-5.654365 12.230636-5.873127 20.0625-5.8125Z"/>
  <path  d="M728.5 681.4375c3.941774 2.481206 7.1044 5.935305 10.300781 9.289063 1.891305 1.955132 3.80696 3.713763 5.886719 5.460937 4.599058 3.935466 8.80642 8.252518 13.037842 12.574951 2.917516 2.960782 5.876222 5.793764 9.036377 8.495361 6.307321 5.443576 12.022317 11.518787 17.841797 17.472657 5.420626 5.485113 10.98586 10.531498 17.010986 15.344726 2.686475 2.167656 5.142398 4.413995 7.572998 6.862305l2.230469 2.214844C813 761 813 761 813 763l1.6875.6875c3.800496 2.157038 6.491165 5.236269 9.125 8.6875 3.036665 3.643998 6.587485 6.551044 10.1875 9.625 1.566378 1.37058 3.128871 2.745613 4.6875 4.125l2.136719 1.882813c4.130264 3.78175 8.01068 7.829753 11.958572 11.800628 2.513151 2.526664 5.029073 5.050561 7.54509 7.574371a4083.198482 4083.198482 0 0 1 3.953125 3.973633c9.302788 9.437638 9.302788 9.437638 19.143555 18.302979C886.127195 831.959154 888.582528 834.401218 891 837v2l1.758545.777344c2.453392 1.338262 4.117438 2.824349 6.104736 4.785156l2.179444 2.149902C919.897985 865.715715 919.897985 865.715715 921 879l.246094 2.121094c.489266 7.368649-2.121925 13.359315-6.785156 18.890625-5.341075 5.63239-9.849906 9.16826-17.398438 11.113281l-1.902344.507813C887.638275 912.911396 880.787127 911.279338 874 908c-5.579793-3.967045-10.237256-9.11912-15-14-2.314098-2.33529-4.63102-4.66763-6.952515-6.99556-2.369855-2.376569-4.73104-4.759896-7.078735-7.158493l-2.609375-2.646728-2.329102-2.380127C838.038486 872.79197 838.038486 872.79197 835 872c-1.542969-1.785156-1.542969-1.785156-3.1875-4.0625-4.668692-6.18896-9.987051-11.41342-15.875-16.4375-4.657274-4.010177-8.538472-8.572053-12.425781-13.316406-2.55386-3.077023-5.136505-5.793932-8.199219-8.371094-3.25389-2.765821-6.095578-5.714618-8.936523-8.901367-7.105734-7.853429-14.635033-15.282816-22.140725-22.751045-2.618034-2.6051-5.232781-5.21346-7.846763-7.822625-5.543334-5.531995-11.090617-11.06002-16.638489-16.587463-6.449058-6.425376-12.896443-12.852413-19.339623-19.283684-2.565339-2.558899-5.13369-5.114748-7.702186-7.670479a34678.185643 34678.185643 0 0 1-4.744324-4.734314l-2.138214-2.122558c-20.438566-20.436406-20.438566-20.436406-22.013153-29.001465.382518-8.032887 3.146891-17.39599 8.605469-23.53125 8.87076-7.885121 25.000993-10.881194 36.082031-5.96875ZM760 725l1 2Zm10 10 1 2Z"/>
  <path  d="M912 485h3c1.348209 3.66138 2.679258 7.328624 4 11l.863281 2.382813c3.391569 9.705103 4.475356 19.118827 4.761719 29.367187l.112793 3.491943c.099681 3.25251.185425 6.504934.262207 9.758057l.054688 2.287598C925.672389 573.639914 919.6666 602.42437 905.75 629.625l-1.578125 3.101563L903 635h-2l-.367188 2.238281c-1.666658 7.273625-6.746 13.467124-11.01953 19.433594-1.64227 2.369958-3.010862 4.834344-4.398438 7.359375C882.187374 668.937502 878.510457 673.434617 875 678l-1.894531 2.492188c-3.372132 4.399756-6.911823 8.579364-10.601563 12.714843-1.777605 2.119275-3.12617 4.40006-4.503906 6.792969l-2 1-1.140625 2.039063c-2.683343 4.273054-6.12793 7.702019-9.609375 11.335937l-2.09375 2.210938C838.840756 721.128563 834.454034 725.593275 830 730c-4.05309-1.35103-6.418608-3.061879-9.375-6.125l-2.382813-2.460938c-1.877647-2.021578-3.699263-4.067857-5.492187-6.164062-3.233416-3.777356-6.717227-7.256563-10.25-10.75-4.11662-4.075378-8.144857-8.156472-11.863281-12.605469-1.233387-1.427667-2.535454-2.796414-3.867188-4.132812-5.6918-5.828953-5.6918-5.828953-6.082031-10.511719 1.483766-3.674086 3.518664-5.583254 6.3125-8.25 1.334455-1.317862 2.666266-2.638406 3.996094-3.960938l2.19336-2.179687L795.4375 660.625l2.236328-2.210938c3.870188-3.852986 7.546018-7.769104 11.054443-11.953124 1.555028-1.786386 3.243816-3.285871 5.084229-4.773438 4.010967-3.40856 7.42072-7.194472 10.894531-11.140625 2.231736-2.478861 4.541731-4.831947 6.917969-7.171875 3.38507-3.338137 6.532683-6.794745 9.621094-10.40625 1.877159-2.1071 3.855551-4.064625 5.878906-6.03125 2.973189-2.92163 5.388716-5.893965 7.722656-9.335938C857.395716 594.060191 860.393236 591.40451 864 589l1.375-2.3125c1.856768-3.070808 4.060414-5.183975 6.625-7.6875 13.492863-15.70811 22.34624-33.300619 31-52l.912354-1.922607c1.9164-4.191943 2.902492-8.37058 3.650146-12.889893a5383.835477 5383.835477 0 0 1 .746094-4.242188l.35498-2.05371c.436466-2.45409.945448-4.890628 1.461426-7.329102.917358-4.5027 1.432473-8.989724 1.875-13.5625Z"/>
  <path  d="m355 530 3 1v2h2c1.15625 1.363281 1.15625 1.363281 2.5 3.3125 3.367258 4.65159 7.166465 8.808332 11.054688 13.027344 2.03621 2.21511 4.034858 4.451464 6.007812 6.722656 2.665118 3.06205 5.354757 6.100536 8.0625 9.125 1.07121 1.196895 1.07121 1.196895 2.164063 2.417969 4.263213 4.617225 8.803111 8.9754 13.26619 13.398483 3.237835 3.211164 6.470463 6.427548 9.702804 9.644241 1.71015 1.700018 3.422081 3.398247 5.135742 5.094727 2.473661 2.449537 4.940926 4.905358 7.406982 7.362549l2.3387 2.307419 2.135177 2.13472 1.892288 1.87883C433 611 433 611 433 613l1.609375.625c3.39836 1.954612 5.901184 4.596237 8.640625 7.375l1.679688 1.65625C449 626.746613 449 626.746613 449 629h2v2l1.6875.625c3.282624 1.95183 5.019232 4.31731 7.3125 7.375v2l1.785156.761719c2.491286 1.392835 3.837848 2.859138 5.652344 5.050781 3.7029 4.36329 7.528533 8.345456 11.9375 12 3.98317 3.37236 7.251584 7.220877 10.625 11.1875 1.475294 1.670095 2.954449 3.33679 4.4375 5l2.058594 2.3125L498 679c-1.183965 3.262852-2.356994 5.739367-4.6875 8.3125l-1.609375 1.796875L490 691l-1.703125 2.015625c-3.249697 3.835228-6.574586 7.159566-10.455322 10.346191-1.86374 1.65792-3.437965 3.390729-5.05249 5.290528-3.839132 4.437662-7.821718 8.705639-11.914063 12.910156l-2.089844 2.228516c-.67418.689004-1.34836 1.378007-2.042968 2.08789l-1.816895 1.892823C453 729 453 729 450.481933 728.88208c-2.669393-.948703-3.960551-1.869986-5.935058-3.874267l-1.862549-1.870118L440.75 721.125l-2.01831-2.05957c-4.482198-4.62545-8.635243-9.393363-12.622315-14.452149-2.286706-2.832974-4.702655-5.500793-7.171875-8.175781C406.384801 682.748988 406.384801 682.748988 404 676h-2c-1.74265-2.255916-3.3519-4.511175-4.9375-6.875l-1.45459-2.145508c-3.695378-5.502835-7.25151-11.089197-10.73291-16.729492-.473005-.761675-.94601-1.52335-1.43335-2.308105l-1.324462-2.17627-1.168458-1.913086c-.990977-1.935034-1.506527-3.7302-1.94873-5.852539h-2c-15.523442-31.880635-15.523442-31.880635-18.277344-45.46875-.531619-2.59775-1.12228-5.125377-1.789062-7.6875-3.119278-12.496056-3.321293-24.444406-2.883545-37.282715.025382-2.61318.025382-2.61318-.609863-5.329101L353 540l1-1c.231929-1.514694.412152-3.037546.5625-4.5625l.253906-2.503906L355 530Zm-1 11 1 2Z"/>
  <path  d="M440 381c2.082031-.339844 2.082031-.339844 5 0 2.410495 1.739442 4.509697 3.443396 6.6875 5.4375l1.701172 1.50586c1.21288 1.077362 2.418808 2.16258 3.61914 3.253906 1.35341 1.224702 2.718512 2.43658 4.09375 3.636718 8.564019 7.531426 16.50034 15.693499 24.523438 23.791016 2.905858 2.932682 5.815176 5.86187 8.726563 8.789063l1.967193 1.99234c3.003128 3.018929 6.034344 5.933874 9.276459 8.695404 6.49426 5.610119 12.463304 11.792135 18.529785 17.855224a54261.507775 54261.507775 0 0 0 4.068604 4.058518c2.825746 2.81979 5.64945 5.641608 8.471923 8.464676 3.624418 3.62452 7.25571 7.242068 10.888733 10.85796 2.794821 2.783742 5.585125 5.571977 8.374146 8.361528a2324.832723 2324.832723 0 0 0 4.019165 4.005832c1.864678 1.854944 3.722988 3.716039 5.579773 5.578879l1.690384 1.673355C571 502.771673 571 502.771673 571 505l1.75.625c2.440662 1.491516 3.578082 3.019123 5.054688 5.4375.893463 1.448229 1.846622 2.85993 2.828124 4.25 10.801384 15.711103 13.489125 33.945865 10.148438 52.589844-1.164754 4.61825-2.958066 8.923803-4.855469 13.285156-.975836 2.964567-1.268547 4.03356.074219 6.8125 1.836703 1.98408 1.836703 1.98408 4.0625 3.75l2.222656 1.859375L594 595c-1.2748 3.686327-2.64655 6.004916-5.449219 8.707031l-2.072265 2.029297-2.166016 2.076172c-4.850202 4.69737-9.490117 9.406343-13.780518 14.627686C569 624 569 624 566 625l-1 2-1.722656-1.785156c-4.579643-4.747588-4.579643-4.747588-10.652344-6.402344L549 620c-1.767715.510916-3.538886 1.009955-5.3125 1.5l-2.894531.800781c-16.904888 4.232133-36.96299 3.322316-52.09375-5.527344-13.16401-8.649001-24.456339-20.508692-35.636719-31.523437l-1.55835-1.518799C450.296198 582.526184 449.142111 581.267595 448 580v-2l-1.9375-.8125C444 576 444 576 443 573l-2-1c-2-1-2-1-3-4l-1.75-.875c-5.803308-2.901654-10.054376-9.235518-14.261719-14.015625C420.176496 550.944867 420.176496 550.944867 418 550v-2l-1.828125-.800781c-2.276104-1.25677-3.34006-2.35362-4.921875-4.386719-2.167037-2.638367-4.382007-4.872042-7-7.0625-6.330107-5.382413-11.794963-11.714507-17.0625-18.125-3.043662-3.652395-6.45358-6.900822-9.835938-10.238281-4.655556-4.608868-9.284982-9.206606-13.511718-14.21875-1.473089-1.735806-2.991239-3.43333-4.523438-5.117188A4033.992601 4033.992601 0 0 1 356.5 484.875l-2.65625-2.945313C352 479 352 479 352.113281 475.753908 353 473 353 473 354.6875 471.0625c3.266011-1.5006 4.91306-1.172521 8.3125-.0625 2.375 2.125 2.375 2.125 5 5 1.089208.951493 2.190285 1.889465 3.298828 2.81836 5.81225 5.048154 11.176785 10.546403 16.599442 16.004745 1.9831 1.99601 3.969436 3.988752 5.956588 5.980728 4.931886 4.945167 9.85828 9.895792 14.784851 14.846252 4.174245 4.194061 8.35059 8.386009 12.529679 12.575242 1.945092 1.951516 3.887119 3.906047 5.829025 5.860733 7.958005 8.001518 7.958005 8.001518 16.402588 15.482666 2.498338 2.236278 4.568162 4.812624 6.723999 7.37268 2.806852 3.08169 5.961274 5.720213 9.152344 8.394531L461 567v2l3 1c1.367188 1.425781 1.367188 1.425781 2.875 3.3125 12.57748 14.686912 27.632016 26.692197 47.4375 28.5 10.839562.498122 18.982994-.79443 28.3125-6.472656C545 594 545 594 547.25 593.503906L549 593l1-3c1.175835-.97795 2.390724-1.909429 3.625-2.8125C561.469553 580.542204 565.52789 569.999089 567 560c1.331254-17.0995-.074575-31.585576-10-46l-1.71875-1.714844C554 511 554 511 554 509h-2c-2.625-2.375-2.625-2.375-5-5v-2l-3-1c-1.296875-1.320313-1.296875-1.320313-2.75-3.125-7.729765-9.1142-16.427591-17.642108-25.5625-25.339844-2.545027-2.315268-4.686863-4.943495-6.90625-7.566406-2.39565-2.647823-5.073508-4.870736-7.796875-7.171875-2.711665-2.455444-5.020337-5.180324-7.34375-8-1.619766-1.89347-1.619766-1.89347-3.84375-3.40625L488 445v-2l-1.9375-.8125C484 441 484 441 483 438l-1.75-.875c-4.061315-2.030657-6.817963-4.828889-8.25-9.125h-2c-1.625-1.375-1.625-1.375-3-3v-2l-1.816406-.792969c-2.314212-1.279233-3.480188-2.469535-5.121094-4.519531-2.506184-3.106552-5.233662-5.8707-8.0625-8.6875-2.39451-2.502665-4.76063-5.03138-7.125-7.5625l-1.878906-1.998047-1.816407-1.94336-1.6333-1.744384C436 390.601674 436 390.601674 436 387l4-2v-4Zm10 12 1 2Zm-97 83 1 2Zm196 12 1 2Z"/>
  <path  d="M648.3125 341.0625C650 342 650 342 652 345c-.207031 2.121094-.207031 2.121094-.8125 4.4375l-.582031 2.308594c-.36666 1.364922-.749 2.72594-1.160156 4.078125-2.3644 11.552374-.76595 25.133053 5.402343 35.1875C657.123998 394.106056 659.524837 397.065392 662 400c11.876765 14.337612 19.988483 25.671076 18.8125 45.3125-.594787 5.207844-1.814328 9.85174-3.8125 14.6875l-.699219 1.945313c-4.404335 10.613373-14.649782 17.803554-24.173095 23.530761C647.832052 488.127334 645.52621 490.61237 643 495c-3.648717-.552836-4.907416-1.738798-7.125-4.625-3.370159-4.04852-7.038241-6.746596-11.390625-9.667969-11.24614-7.7273-20.5104-18.508122-23.078125-32.183105-4.765783-29.608572-.712527-56.887229 16.96875-81.398926 1.398438-1.867188 1.398438-1.867188 2.625-3.125h2l.3042-1.779297c.824421-2.631208 1.892447-3.804465 3.828612-5.751953l1.945313-1.957031L631.125 352.5l1.976563-2.011719c9.633857-9.576513 9.633857-9.576513 15.210937-9.425781ZM674 445v6h1v-6h-1Z"/>
  <path  d="M638 720c4.057604 1.331691 6.097046 2.860283 8.815918 6.124512 4.01024 4.616993 8.191104 8.990643 12.520508 13.30957l2.053755 2.050535c1.436136 1.431542 2.873212 2.862141 4.311147 4.291876 2.290222 2.277296 4.577163 4.557843 6.863339 6.8392 4.85062 4.839273 9.705178 9.674583 14.560333 14.509307 5.63871 5.61502 11.275744 11.2317 16.908566 16.852627 2.241808 2.235376 4.48663 4.467695 6.731601 6.699894a26539.138523 26539.138523 0 0 1 4.157196 4.147186l1.86438 1.848724c3.717769 3.717321 7.225302 7.5604 10.637861 11.56027 1.448627 1.624168 2.961407 3.06036 4.575396 4.516299 2 2.25 2 2.25 1.933594 4.039063-1.33541 3.162519-3.53242 5.38699-5.871094 7.835937l-1.473877 1.575195C721.839036 831.245336 716.947418 836.14917 712 841c-2.755364-1.377682-3.409052-3.51783-4.849121-6.132324-1.765282-2.864745-4.084778-5.065032-6.463379-7.430176-5.136533-5.292082-8.152304-10.659348-11.054688-17.40625-2.46108-4.568895-5.547076-6.441176-10.046874-8.886719-3.991352-2.2137-6.853821-5.155244-9.960938-8.457031-4.345512-4.496328-8.726654-8.482974-13.765625-12.207031C653.105653 778.287904 651.167869 775.770055 649 773c-3.84875-4.628334-7.156321-6.013644-13-6.6875l-2.117188-.373047C631.526489 765.56574 631.526489 765.56574 628 766c-2.93369 2.289676-4.648588 5.099508-6 8.5625-1.374913 3.35135-3.239917 5.11652-6 7.4375l-2.9375.75c-5.937052 2.423286-8.489728 8.852947-10.9375 14.5-1.87332 3.924684-4.231257 5.419228-7.988281 7.460938-2.353355 1.419756-4.104385 3.065705-6.074219 4.976562-6.66544 5.976808-14.503996 5.634114-23.0625 5.3125v2l-6 2c.493721 4.344746 1.342745 6.598714 4 10 .723514 1.980144 1.402654 3.978213 2 6-5.043458-2.235767-8.443659-6.03673-12.3125-9.875l-2.283203-2.183594-2.142578-2.121094-1.96997-1.929199C545 817 545 817 545.127685 814.945801c1.513353-3.375714 4.352324-5.685999 6.997314-8.195801 3.525657-3.386916 6.951032-6.77983 10.130508-10.497925 3.55911-4.091461 7.304557-7.94699 11.148545-11.769653l2.131149-2.131592c2.297098-2.296408 4.597705-4.589267 6.898392-6.88208a25091.725264 25091.725264 0 0 0 4.81276-4.808472c4.201373-4.197575 8.405743-8.392136 12.610763-12.58606 4.298804-4.288534 8.594743-8.579937 12.89093-12.871093C621.162577 736.799287 629.580276 728.398633 638 720Z"/>
  <path  d="m688 696 2.8125 2.4375c4.244315 3.659193 8.633483 7.132134 13.027344 10.609375L706 711v2h3c1.542969 1.503906 1.542969 1.503906 3.1875 3.5625 2.44109 2.924168 4.897028 5.486239 7.8125 7.9375 3.512472 2.97471 6.488827 6.19545 9.457031 9.707031 1.630579 1.947765 1.630579 1.947765 3.980469 4.167969C735 740 735 740 735 742l1.9375.8125C739 744 739 744 740 747l2 1 2 1 1 3 2 1 2 1 1 3 2 1 2 1 1 3 1.75.875c2.377287 1.188643 3.852397 2.652452 5.693848 4.538086 1.824094 1.860152 3.68336 3.681737 5.544433 5.504883a43765.086574 43765.086574 0 0 1 4.324219 4.269531l2.24414 2.19336c.699317.69287 1.398633 1.385742 2.119141 2.099609l1.934815 1.903076C780 785 780 785 780 787l1.6875.6875c2.974096 1.688 5.032589 3.779265 7.3125 6.3125v2l1.824219.804688c2.25593 1.239343 3.385217 2.333806 4.988281 4.320312 5.919107 7.240319 12.182529 14.03017 18.8125 20.625l2.234375 2.246094c2.825049 2.819985 5.575839 5.56368 8.726563 8.019531 2.090032 1.71802 3.634915 3.33189 5.375 5.378906 5.517454 6.447984 11.646379 12.317698 17.664062 18.292969a13466.28113 13466.28113 0 0 1 3.679688 3.666016c2.251982 2.24388 4.505298 4.486401 6.760253 6.727295l1.497483 1.48944c1.39012 1.382552 2.780902 2.764439 4.171707 4.146302 1.594423 1.606792 3.147386 3.255265 4.668213 4.931885 8.015225 8.620381 17.732236 15.796224 29.957031 16.484374 5.014044-.016385 9.862915-.293536 14.828125-1.011718C916 892 916 892 918 893c-1.414107 4.40032-3.547282 6.951655-6.8125 10.1875l-2.582031 2.605469c-3.535531 2.994865-7.117904 4.19183-11.542969 5.332031l-1.902344.507813C887.638275 912.911396 880.787127 911.279338 874 908c-5.579793-3.967045-10.237256-9.11912-15-14-2.314098-2.33529-4.63102-4.66763-6.952515-6.99556-2.369855-2.376569-4.73104-4.759896-7.078735-7.158493l-2.609375-2.646728-2.329102-2.380127C838.038486 872.79197 838.038486 872.79197 835 872c-1.542969-1.785156-1.542969-1.785156-3.1875-4.0625-4.668692-6.18896-9.987051-11.41342-15.875-16.4375-4.657274-4.010177-8.538472-8.572053-12.425781-13.316406-2.55386-3.077023-5.136505-5.793932-8.199219-8.371094-3.25389-2.765821-6.095578-5.714618-8.936523-8.901367-7.105734-7.853429-14.635033-15.282816-22.140725-22.751045-2.618034-2.6051-5.232781-5.21346-7.846763-7.822625-5.543334-5.531995-11.090617-11.06002-16.638489-16.587463-6.449058-6.425376-12.896443-12.852413-19.339623-19.283684-2.565339-2.558899-5.13369-5.114748-7.702186-7.670479a34678.185643 34678.185643 0 0 1-4.744324-4.734314l-2.138214-2.122558c-20.438566-20.436406-20.438566-20.436406-22.013153-29.001465.215901-4.533924.77447-11.52447 4.1875-14.9375Z"/>
  <path  d="M589 697c1.9375.8125 1.9375.8125 4 2 1.978386 5.935157 1.642325 12.559166.0625 18.5625-5.1426 9.688291-13.869864 17.438079-21.5 25.125l-2.730225 2.758545-2.578369 2.565674-2.33374 2.326904C562 752 562 752 560 752l-.668457 1.658447c-1.752243 3.081366-4.118254 5.35592-6.63623 7.806397l-1.576935 1.561172c-1.659762 1.642004-3.326055 3.277161-4.993378 4.911484-1.659324 1.63158-3.317118 3.26464-4.971954 4.900772-1.027855 1.015736-2.05837 2.028788-3.09198 3.038666-2.92541 2.88508-5.52723 5.892577-8.061066 9.123062-1.302625 1.200857-2.63546 2.36999-4 3.5-3.071009 2.608645-5.502988 5.330716-8 8.5h-2l-.769531 1.796875c-1.366733 2.447102-2.747899 3.696605-4.917969 5.453125-2.808127 2.273514-5.168673 4.69433-7.509033 7.432861-3.50954 4.035934-7.20682 7.818208-11.022217 11.563233a28833.617786 28833.617786 0 0 0-4.074219 4.03711c-2.104323 2.079557-4.210238 4.157452-6.318847 6.232665-2.061029 2.030529-4.115542 4.067481-6.169434 6.105225l-1.878784 1.837997c-3.159287 3.141423-6.012363 6.336271-8.698853 9.893204-3.968098 5.213032-8.47973 9.774167-13.117676 14.389892l-2.691741 2.69754c-2.338574 2.34027-4.681909 4.675644-7.026947 7.00943-1.911482 1.90626-3.81548 3.81991-5.719569 5.73355-2.286551 2.295531-4.580724 4.583413-6.874242 6.87198l-2.572907 2.585175-2.417816 2.398712-2.109528 2.104706c-2.233872 1.965083-4.54025 3.3702-7.110687 4.85672-2.303803 1.992158-4.50582 4.068003-6.71875 6.160156-5.53599 4.464814-11.184198 4.266809-18.03125 4.339844l-2.882813.125c-8.787392.0963-13.672612-3.186375-19.960937-9.039063L365.5 899.375l-1.96875-2.226563C362.021204 895.029751 361.41431 893.543405 361 891c5.75 1.875 5.75 1.875 8 3 13.42789.750807 22.375385-.119426 33-9l2.257813-1.886719c4.44058-3.830942 8.405737-7.847535 12.203125-12.3125 4.057035-4.746937 8.734666-8.76969 13.453125-12.835937 2.141363-1.898195 2.141363-1.898195 3.734375-4.210938L435 852h2l2-4h2l.820633-1.807434c1.166324-2.168318 2.305178-3.555192 4.04924-5.27362l1.751144-1.740906 1.890702-1.849915 1.958938-1.943176c2.067583-2.049797 4.141705-4.092803 6.216843-6.134949 2.056462-2.028663 4.111383-4.058826 6.163284-6.092102 1.274982-1.262925 2.552624-2.523171 3.833466-3.780151 2.934448-2.902165 5.748946-5.84148 8.425857-8.98346 5.431586-6.285478 11.421033-12.048079 17.303955-17.906006a16439.075223 16439.075223 0 0 0 3.902436-3.898147c3.405408-3.401614 6.813807-6.800216 10.22287-10.198166 3.465253-3.455011 6.927671-6.912862 10.39032-10.370484 5.592013-5.583255 11.185714-11.164813 16.781753-16.744033C536.141204 749.851877 537.570611 748.425947 539 747l2.761566-2.752762c1.328517-1.333742 2.64316-2.681944 3.925934-4.059738C547 739 547 739 549 739l.786133-1.787598c1.302384-2.373733 2.64351-3.788906 4.635742-5.61084l2.088379-1.93164L558.75 727.625c1.545845-1.4332 3.09009-2.868127 4.632813-4.304688l2.348632-2.186523C573.864134 713.484231 581.883155 705.615127 589 697Z"/>
  <path  d="M923 552h1c.768778 27.533652-5.64356 52.985138-18.25 77.625l-1.578125 3.101563L903 635h-2l-.367188 2.238281c-1.666658 7.273625-6.746 13.467124-11.01953 19.433594-1.64227 2.369958-3.010862 4.834344-4.398438 7.359375C882.187374 668.937502 878.510457 673.434617 875 678l-1.894531 2.492188c-3.372132 4.399756-6.911823 8.579364-10.601563 12.714843-1.777605 2.119275-3.12617 4.40006-4.503906 6.792969l-2 1-1.140625 2.039063c-2.683343 4.273054-6.12793 7.702019-9.609375 11.335937l-2.09375 2.210938C838.840756 721.128563 834.454034 725.593275 830 730c-4.125242-1.379974-6.750232-3.237929-9.875-6.25l-2.429688-2.265625C816 719 816 719 816.304688 715.765625L817 713l-1-1c.390814-4.98288 1.55988-8.65022 4-13h2l.875-2.25C824 694 824 694 825 692.1875c1.18645-2.361998 1.18645-2.361998 1.6875-5.875 1.075028-4.590198 3.530885-7.56342 6.511719-11.136719 1.61795-1.954878 3.025107-3.938653 4.425781-6.050781C840 666 840 666 842.375 664.625c3.4998-2.166543 5.370565-5.031231 7.8125-8.304688 1.625233-2.080578 3.285186-3.87226 5.1875-5.695312 2.90602-2.802464 5.419204-5.781885 7.9375-8.9375 3.880685-4.837566 8.092017-9.1392 12.527344-13.464844C878.353399 625.636376 880.109046 623.054618 882 620l1.769531-1.746094c2.771536-2.800659 5.133946-5.828845 7.542969-8.941406l1.47168-1.891846c.967472-1.243733 1.934129-2.488101 2.899902-3.733154 1.103372-1.414936 2.221588-2.818279 3.343262-4.21875 7.11674-8.908028 12.362687-17.506557 15.929687-28.402344.85689-2.519321 1.857795-4.70108 3.042969-7.066406.349156-1.324207.662379-2.658455.9375-4 .768205-3.267922 1.690028-5.524377 4.0625-8ZM360 591c6.482312-.689608 10.84708 1.018598 16 5 3.705723 3.924442 7.27762 7.832859 9 13 1.403097 1.169247 2.809726 2.334654 4.238281 3.472656C393.261425 615.960571 397.30262 619.907857 399 625h2c1.261615 1.45439 2.455016 2.967947 3.621094 4.5 4.061356 5.077713 8.410069 9.68654 13.039062 14.25l2.060639 2.033936c2.836115 2.790183 5.68081 5.571471 8.52896 8.349365 2.101427 2.053436 4.193785 4.11578 6.285401 6.179199l1.969254 1.90332 1.79271 1.772461 1.586562 1.548096C441 667 441 667 441 670l3 1c5.451022 4.887123 9.3403 11.321393 13.282715 17.422607 2.42739 3.737358 4.97365 7.144966 7.904785 10.514893 2.272968 2.85057 3.266625 4.511107 2.9375 8.1875-1.443879 6.912185-4.564642 12.006336-9.5 16.875l-1.421875 1.519531c-2.118568 2.12442-3.567406 3.416276-6.601563 3.722656-4.03542-1.926822-6.77696-4.918018-9.851562-8.117187l-2.01831-2.05957c-4.482198-4.62545-8.635243-9.393363-12.622315-14.452149-2.286706-2.832974-4.702655-5.500793-7.171875-8.175781C406.384801 682.748988 406.384801 682.748988 404 676h-2c-1.74265-2.255916-3.3519-4.511175-4.9375-6.875l-1.45459-2.145508c-3.695378-5.502835-7.25151-11.089197-10.73291-16.729492-.473005-.761675-.94601-1.52335-1.43335-2.308105l-1.324462-2.17627-1.168458-1.913086c-.990977-1.935034-1.506527-3.7302-1.94873-5.852539h-2c-16.94931-34.808953-16.94931-34.808953-17-47Z"/>
  <path  d="M758 614c2.5625 2.375 2.5625 2.375 5 5l1.8125 1.6875C766 622 766 622 766 624l3 1-1.617188.882813c-4.149787 2.2831-8.259857 4.61584-12.320312 7.054687l-2.5625 1.539063c-1.572272.958103-3.13621 1.930157-4.6875 2.921874C729.690868 648.78738 709.169743 656.168585 689 663l-1.993164.686035C675.985392 667.458737 665.595938 668.362913 654 668l-2.339844-.050781c-10.650423-.655123-20.272165-7.189228-27.414062-14.824219C615.872808 642.716104 615.464852 632.813818 616 620l2 2 4-3 2 1-1 3c4.872418 10.642387 11.96816 18.026304 22.625 22.75 15.13897 5.184579 30.917681.844823 45.375-4.3125l1.890808-.664429C708.387565 635.3274 723.840443 629.411398 738 621c2.144767-1.272632 4.290626-2.543425 6.4375-3.8125l2.933594-1.769531C751.109846 613.401376 753.971684 612.291018 758 614Z"/>
  <path  d="m870 583 2 1c-3.446154 5.784615-3.446154 5.784615-6.25 6.875L864 591l-.3125 3.6875c-.465755 3.792575-1.615928 6.080848-3.6875 9.3125l-.75 3.375c-2.084295 6.044455-6.79953 9.462898-11.625 13.4375-2.656612 1.916709-2.656612 1.916709-3.625 4.1875-.197132 2.186653-.38225 4.37439-.5625 6.5625C842.228582 643.476148 837.875905 654.741291 834 666h-2l-.3042 2.281982c-.776252 3.03229-1.59316 4.076363-3.828612 6.2063l-1.933594 1.878661L823.875 678.3125c-1.379325 1.339375-2.756954 2.680501-4.132813 4.023438l-1.985351 1.92871C814.638129 687.345217 811.812927 690.643583 809 694a1621.634066 1621.634066 0 0 1-3.9375 4.5l-1.777344 2.03125L802 702c-4.06935-1.576157-6.553011-4.495965-9.375-7.6875l-1.461914-1.641357c-.954977-1.073306-1.908157-2.148215-2.859375-3.224854-1.095117-1.214882-2.237421-2.386993-3.389649-3.547851-2.827589-2.90724-3.888843-4.410877-4.101562-8.523438 1.355317-3.851953 3.316293-5.649832 6.1875-8.375 1.334795-1.317518 2.666576-2.638094 3.996094-3.960938l2.19336-2.179687L795.4375 660.625l2.236328-2.210938c3.870188-3.852986 7.546018-7.769104 11.054443-11.953124 1.555028-1.786386 3.243816-3.285871 5.084229-4.773438 4.010967-3.40856 7.42072-7.194472 10.894531-11.140625 2.231736-2.478861 4.541731-4.831947 6.917969-7.171875 3.38507-3.338137 6.532683-6.794745 9.621094-10.40625 1.877159-2.1071 3.855551-4.064625 5.878906-6.03125 2.974094-2.92252 5.385524-5.900868 7.730469-9.335938 2.458965-3.440873 4.87744-6.100619 8.832031-7.664062 2.459437-.725546 2.459437-.725546 3.5-2.9375l.8125-2 2-2Z"/>
  <path  d="M403 583c4.17209 1.639664 6.981216 4.692715 10.078125 7.8125l1.731628 1.72583c1.202595 1.201237 2.40268 2.40499 3.600403 3.611084 1.840251 1.850996 3.69097 3.69104 5.542969 5.530274 1.167309 1.16863 2.333998 2.337879 3.5 3.507812l1.685364 1.673096C433 610.770064 433 610.770064 433 613l1.609375.625c3.39836 1.954612 5.901184 4.596237 8.640625 7.375l1.679688 1.65625C449 626.746613 449 626.746613 449 629h2v2l1.6875.625c3.282624 1.95183 5.019232 4.31731 7.3125 7.375v2l1.785156.761719c2.491286 1.392835 3.837848 2.859138 5.652344 5.050781 3.7029 4.36329 7.528533 8.345456 11.9375 12 3.98317 3.37236 7.251584 7.220877 10.625 11.1875 1.475294 1.670095 2.954449 3.33679 4.4375 5l2.058594 2.3125L498 679c-1.183965 3.262852-2.356994 5.739367-4.6875 8.3125l-1.605469 1.792969L490 691l-1.738281 2.050781L486.5 695.125l-1.59375 1.882813c-2.463695 2.574763-5.139568 4.7462-7.90625 6.992187l-1.433594-2.640625c-5.943166-10.772275-12.748002-20.34956-21.023437-29.496094-1.565829-1.890886-2.757319-3.800506-3.980469-5.925781-1.840609-3.126597-3.812633-5.149209-6.625-7.4375-4.061912-3.374747-6.05477-6.610384-7.9375-11.5l-.867188-2.121094C432.9345 639.006272 432.337953 633.234624 432 627l-2.375-.75C427 625 427 625 425.730469 623.148437c-.749086-2.203193-1.115067-4.218235-1.417969-6.523437-2.545704-12.937494-9.316116-21.4583-18.714844-30.175781L403 584v-1Z"/>
  <path  d="M419 412c1.875 1.625 1.875 1.625 4 4 1.19891 1.062985 2.409977 2.11232 3.628754 3.152466 4.324562 3.758519 8.391868 7.727075 12.436187 11.78308l2.30928 2.303971c2.494953 2.490585 4.986269 4.98477 7.477342 7.479233a44610.346545 44610.346545 0 0 0 5.236175 5.233276c3.647837 3.646367 7.29387 7.294526 10.93863 10.94397 4.661351 4.667053 9.327184 9.329597 13.994378 13.990807 3.60154 3.597918 7.200685 7.198224 10.79912 10.799247a8360.99206 8360.99206 0 0 0 5.159798 5.157319c2.407162 2.40461 4.811075 4.812424 7.214184 7.221084l2.135055 2.128922c4.9415 4.962567 9.558406 10.090308 13.858597 15.619125 1.801949 2.38759 1.801949 2.38759 4.8125 4.1875 1.040907 1.64143 2.045043 3.307122 3 5l1 1c-.25 3.4375-.25 3.4375-1 7-3 2-3 2-6.0625 1.875C517 530 517 530 515.875 528.0625L515 526c-1.916667-1.166667-1.916667-1.166667-4-2l-3-2v-2l-3-1c-1.713056-1.618949-3.370577-3.296903-5-5-1.067714-1.071134-2.138452-2.13926-3.21164-3.20491l-1.774993-1.770615-1.895691-1.89093c-6.850943-6.834573-13.699314-13.671716-20.546248-20.510305-4.135603-4.130382-8.272136-8.259824-12.410783-12.387156-4.015032-4.004128-8.02758-8.010728-12.038456-12.019018-1.522842-1.521003-3.046558-3.04113-4.57119-4.560337-2.138991-2.13168-4.274779-4.266522-6.409886-6.40209l-1.883423-1.872528c-3.709363-3.717986-7.222419-7.555108-10.639894-11.543453-2.66506-3.028896-5.545392-5.83358-8.430296-8.651158-5.92051-5.787015-5.92051-5.787015-8.1875-9.1875.375-2.6875.375-2.6875 1-5l3-1-1-2c2.971014-1.485507 4.834347-.82307 8 0Z"/>
  <path  d="M387.806107 441.044144c4.017412 1.202316 6.385895 3.369779 9.296188 6.249557l1.702372 1.629024C400.5503 450.601554 402.276963 452.298015 404 454l1.577976 1.545444c3.084634 3.022998 6.14039 6.073486 9.18218 9.139548 1.659953 1.673066 3.323316 3.34268 4.987448 5.011587 3.524522 3.535769 7.045015 7.075533 10.564896 10.615921 4.104503 4.128286 8.21074 8.254819 12.321218 12.377157 1.623816 1.630207 3.244548 3.263433 4.865138 4.896845 4.794495 4.817658 9.609468 9.546108 14.826751 13.912933 2.520406 2.258749 4.642087 4.821215 6.826737 7.399002 2.0257 2.304074 4.161882 4.449075 6.347656 6.601563 3.507939 3.46013 6.794966 7.03381 9.992187 10.78125 1.600659 1.877436 1.600659 1.877436 3.945313 4.03125C491 542 491 542 491 545h2c4.035604 6.359133 4.035604 6.359133 3.875 9.25C496 556 496 556 494 559c-5.415611-.369611-8.158475-2.422516-11.875-6.125a3108.924984 3108.924984 0 0 0-3.148438-3.011719l-1.53418-1.48584c-1.924761-1.838102-3.924332-3.580325-5.942382-5.314941-5.409836-4.711066-5.409836-4.711066-7.5-7.0625v-2h-2v-2l-4-2v-2l-1.9375-.8125C454 526 454 526 453 523l-1.75-.875c-4.318205-2.159102-7.196652-6.03914-10.25-9.6875-2.41739-2.880828-5.052892-5.09715-8-7.4375v-2l-1.9375-.8125C429 501 429 501 428 498l-2-1c-2-1-2-1-3-4-1.322675-.68757-2.657437-1.352121-4-2-1.535156-1.558594-1.535156-1.558594-3.0625-3.4375-3.551799-4.226485-7.398923-8.064977-11.381104-11.880615C403.334764 474.490585 402.16269 473.248893 401 472v-2l-1.9375-.8125C397 468 397 468 396 465l-1.699219-.835938c-3.289553-1.664324-5.59993-4.154782-8.113281-6.789062-.51498-.49629-1.02996-.992578-1.560547-1.503906-2.0383-2.144719-3.54074-3.980975-3.831543-6.983399.192871-2.161133.192871-2.161133 1.20459-5.887695 3-2 3-2 5.806107-1.955856ZM384 443l-1 2 4-1-3-1Zm4 2 2 2v-2h-2Z"/>
  <path  d="m635.9375 765.5 2.13086.242188C642.791946 766.39738 645.615542 767.659416 649 771l1.8125 2.8125c2.846925 4.148377 6.34149 6.987171 10.1875 10.1875 4.177695 3.562376 8.194745 7.16367 12 11.125 3.14896 3.210825 6.346971 5.46464 10.191406 7.757813 4.98861 3.081517 7.189332 6.74019 9.621094 11.929687 2.432802 5.10951 5.087971 8.503193 9.222656 12.3125 3.680311 3.512026 8.792331 8.516959 8.964844 13.875-1.835938 2.359375-1.835938 2.359375-4.375 4.75l-2.523438 2.421875C702 850 702 850 701 850c-.125-5.75-.125-5.75 1-8-1.227335-2.416967-1.227335-2.416967-2.9375-5C696 832.200456 696 832.200456 696 830l-1.75-.625c-3.094776-1.891252-4.441876-4.27536-6.25-7.375v-2h-2c-3.99296-3.64064-7.47962-7.753942-11.035156-11.816406-1.304208-1.449408-2.647318-2.864775-4.027344-4.242188-1.74374-1.747255-3.303667-3.540801-4.875-5.441406-3.333506-3.84691-6.94889-7.305285-10.6875-10.75l-1.667725-1.53711c-2.477162-2.25895-4.947061-4.397739-7.605712-6.447265L644 778v-2c-2.66206-.961516-2.66206-.961516-6-1-2.018866 1.1202-3.706327 2.4014-5.484375 3.871094C631 780 631 780 629 780l-.8125 1.9375C627 784 627 784 624 785l-.8125 1.6875c-1.720343 3.350142-4.273253 5.936755-7.1875 8.3125h-2l-.699219 2.183594c-1.551319 3.358861-3.462518 5.307626-6.113281 7.878906l-2.582031 2.535156C602 810 602 810 599.355469 812.101562c-2.047388 1.650134-3.581976 3.185248-5.230469 5.210938-4.365652 5.145233-9.217454 9.802284-14.058105 14.495361l-1.934083 1.89917-1.753417 1.702393C574.765657 837.06528 574.765657 837.06528 574 840h-2v2c-2 0-2 0-4.375-1.875-3.013484-3.093253-4.231571-6.698737-5.632813-10.722656-.90075-2.472644-.90075-2.472644-2.625-4.542969C558 823 558 823 558.25 820.3125 559 818 559 818 560 817c1.666171-.040638 3.33388-.042721 5 0v-2l3.289063-.332031c1.445379-.159555 2.890688-.319745 4.335937-.480469l2.160156-.21289c6.428806-.737249 11.300459-2.540885 15.714844-7.47461 2.136933-2.388337 3.496711-3.498587 6.492188-4.785156 3.803393-2.168429 4.984995-4.776775 6.632812-8.652344 1.909479-4.336859 3.634483-7.994685 7.375-11.0625l6-2c2.975729-2.295562 4.003585-4.008365 5.5-7.5 3.039588-7.092371 6.033074-8.16095 13.4375-7Z"/>
  <path  d="M780.375 399.8125c.678047-.013052 1.356094-.026104 2.054688-.03955 3.974654-.006901 6.992655.479662 10.570312 2.22705-2.94301 2.486572-5.2171 3.512806-9 4.1875l-2.5625.480469C779 407 779 407 775 407l1 3c-12.452247 11-12.452247 11-16 11l-.800781 1.828125c-1.25677 2.276104-2.35362 3.34006-4.386719 4.921875-3.459857 2.841255-6.29691 5.980129-9.203125 9.375-3.965834 4.620389-8.33816 8.261723-13.167969 11.921875-2.537012 2.02961-4.843718 4.208506-7.191406 6.453125-5.51435 5.070767-11.553569 8.235752-18.25 11.5-1.329696-6.648482-.513663-10.77715 2-17l1.023438-2.722656C712.690122 440.309878 712.690122 440.309878 715 438l1.1875-3.0625c5.248018-12.684907 18.48276-24.427892 30.875-29.75 11.013542-4.241326 21.564103-5.243688 33.3125-5.375ZM768 409l4 1Z"/>
  <path  d="M506 400c19.393905-.896636 33.516172 3.299812 48.589844 15.753906C557.022533 418.021 559.062618 420.298454 561 423v2l1.820313.734375c7.618402 4.423588 12.342901 19.323083 14.84375 27.414063.595883 3.284286.391441 6.521292.335937 9.851562-13.348411-9.610856-25.155496-20.825536-36.728027-32.467285-2.186005-2.196942-4.38279-4.382712-6.580567-6.567871-1.395174-1.396493-2.78973-2.793604-4.183594-4.191407l-1.988006-1.975738-1.804474-1.823578-1.594696-1.599518C524 413 524 413 524 411l-2.144531-.289063c-3.348022-.83357-5.650167-2.215284-8.542969-4.085937l-2.886719-1.835938C508 403 508 403 506 400Z"/>
  <path  d="M374 720c3.888615 1.474992 5.12549 3.346979 7 7 .527095 2.150973.982872 4.320379 1.375 6.5.853928 3.82111 1.501676 6.307306 3.625 9.625 3.672725 2.295453 7.154118 3.15426 11.378906 4.003906C400.5416 748.179995 402.0221 749.325725 404 752c.203125 2.105469.203125 2.105469-1 4-2.449665.947005-4.725076 1.655498-7.25 2.3125-7.146547 2.028447-7.146547 2.028447-11.964844 7.308594C381.917676 771.279278 380.92935 777.129229 380 783l-5 1c-2.824029-3.206688-3.45675-5.60459-3.9375-9.8125-1.095235-7.237765-1.095235-7.237765-5.0625-13.1875-3.029903-1.065134-5.962337-1.743409-9.125-2.296875-3.02557-.739949-4.648452-1.545494-6.875-3.703125-.25-2.6875-.25-2.6875 0-5 3.483254-1.875598 6.761987-3.226785 10.5625-4.25 3.780218-1.277015 6.244962-2.740482 8.445313-6.238281 1.918453-4.856558 2.618-10.019682 3.414062-15.160156C373 721 373 721 374 720Z"/>
  <path  d="M900 720c2.375.25 2.375.25 5 1 2.859714 4.300007 3.249919 9.716974 4.21875 14.6875.660945 2.802405 1.236368 4.907464 2.78125 7.3125 4.077305 2.486162 8.393678 3.834435 12.949219 5.15625C927.242252 749.09967 928.46326 750.0643 930 752c-.270361 2.973976-.85446 3.85446-3 6-2.99852.795526-6.015346 1.403621-9.054688 2.023438C914.605968 761.130648 913.19558 762.285464 911 765c-2.620155 5.844962-3.903892 11.70705-5 18-2.988602-.323092-4.579038-.5856-6.753906-2.726563-1.434566-2.617295-1.815303-4.693836-2.183594-7.648437-.803153-4.780672-1.578306-8.051467-5.0625-11.625-2.194191-.961022-4.363669-1.639148-6.671875-2.277344C881.871681 757.649766 879.071228 755.895013 876 754c.1875-1.8125.1875-1.8125 1-4 2.876184-2.266084 5.54773-3.183398 9.0625-3.9375 3.732216-.869915 5.613799-1.878169 7.9375-5.0625 2.663432-4.93228 3.401475-9.088998 3.691406-14.667969.32915-2.487377 1.06958-4.167489 2.308594-6.332031ZM370 357c3.524894 2.34993 3.51405 3.551886 4.381348 7.510986 1.24619 5.494453 2.231684 9.370379 6.728027 12.996826 3.456446 1.83248 3.456446 1.83248 6.929688 3.23047 2.713376 1.156227 4.11197 2.02591 5.960937 4.261718-.628906 1.847656-.628906 1.847656-2 4-2.986207 1.439395-6.023823 2.467603-9.152344 3.558594-4.464498 2.259807-5.406613 5.183179-7.015625 9.773437L374.8125 405.8125l-1.042969 3.519531L373 412c-2.468-1.151734-4.047836-2.047836-6-4-.488528-1.98668-.974407-3.974189-1.429688-5.96875C364.82451 399.374967 363.507838 397.294535 362 395l-1-3-2-.125c-4.38914-1.280166-7.485265-4.023094-11-6.875 2.134795-3.324569 3.553297-4.491857 7.375-5.4375 4.439525-1.385998 6.938592-2.573592 9.625-6.5625.68189-3.053862 1.123497-6.047965 1.445313-9.160156.59626-3.05269 1.512823-4.538608 3.554687-6.839844ZM908 357c3.164406 3.564052 4.623157 6.406675 5.8125 11 1.545561 4.92044 2.857878 7.507976 7.3125 10.128906 1.87204.869719 3.76179 1.628893 5.6875 2.371094C930 382 930 382 931.4375 384.6875L932 387c-2.279584 2.279584-3.915697 2.769734-6.9375 3.8125-4.042228 1.56846-4.042228 1.56846-7.0625 4.625L917 398l-1.125 2.375c-1.012184 2.744479-1.012184 2.744479-1.3125 6.25C914 410 914 410 912.6875 412c-1.6875 1-1.6875 1-3.75.8125C907 412 907 412 905 410c-.273438-2.171875-.273438-2.171875-.375-4.75-.380194-4.964037-1.61327-7.363897-4.625-11.25v-2l-2.082031-.515625L895.1875 390.75l-2.707031-.703125c-2.85693-1.20576-3.86416-2.447892-5.480469-5.046875 4.162599-3.756492 7.753635-5.862592 13-8 2.443567-1.231005 3.715897-2.246135 4.691895-4.835938.59945-2.273322 1.09668-4.546329 1.558105-6.851562l.523438-2.416016c.42305-1.962488.826712-3.929138 1.226562-5.896484Z"/>
  <path  d="M844 793c2.799077 1.275706 4.833688 2.589168 6.989258 4.778076l1.680237 1.690476 1.78363 1.824417 1.875916 1.891678c1.97847 1.996253 3.950146 3.999041 5.920959 6.002853 2.585141 2.62187 5.173433 5.240569 7.765625 7.855469l1.875 1.891525c3.720036 3.731742 7.498068 7.34092 11.536133 10.731522C886.13216 831.959983 888.583718 834.402496 891 837v2l1.758545.777344c4.157417 2.267764 7.24011 5.885284 10.553955 9.222656l2.3125 2.3208c14.28816 14.555602 14.28816 14.555602 14.4375 23.3667L920 878c-1.505595-1.96382-2.891317-3.782634-4-6l-2.296875-1.332031c-2.944134-1.816684-4.722103-3.72369-6.953125-6.355469-4.253052-4.867779-8.82069-9.140648-13.75-13.3125l-2 1-1-2-3-1 1-3c-1.287973-1.701964-2.629867-3.363452-4-5l-1.5625-3.1875c-1.272973-3.055575-1.272973-3.055575-4.4375-4.8125v-3l-3-1c-2.551706-2.14014-3.96813-3.934345-5.429688-6.945313-3.376871-6.019879-8.83416-10.553397-13.757812-15.304687-1.535672-1.487765-3.068921-2.977748-4.596268-4.47406-1.37667-1.347994-2.761454-2.687687-4.146652-4.026917C845 796 845 796 844 793Z"/>
  <path  d="M720 354c4 1 4 1 5.75 3.3125C727 360 727 360 727 364l2.8125.875C733 366 733 366 736 368v2h2c-.5625 1.875-.5625 1.875-2 4l-3.4375.6875c-3.653173.873152-3.653173.873152-4.546875 3.398438-.461186 1.624398-.868441 3.265283-1.214844 4.917968L726 385c-2.082031.777344-2.082031.777344-4 1l-1.023438-1.644531c-.446015-.71543-.89203-1.43086-1.351562-2.167969l-1.335938-2.144531c-2.28721-3.997957-2.28721-3.997957-6.289062-5.980469-3-1.0625-3-1.0625-4.375-3.1875L707 369c3.106467-3.106467 6.834675-3.690898 11-5l2-10Z"/>
  <path  d="M556 355c2.867247.57345 3.861452.861451 6 3 .397643 1.988213.737753 3.989443 1 6l2.875.9375C569 366 569 366 571 367v2h2v3l-2.082031.777344c-5.490478 2.219472-5.490478 2.219472-9.25 6.558593C560.957507 381.55482 560.390124 383.704272 560 386h-3c-2.359893-2.359893-2.311557-3.284754-2.75-6.5-.411007-2.411655-.411007-2.411655-1.25-4.5-2.913825-1.555149-2.913825-1.555149-6-2l-2-2v-3l1.898438-.558594c2.6393-.93666 4.798404-1.837196 7.101562-3.441406 1.358168-2.955415 1.786018-5.769557 2-9Z"/>
  <path  d="m588 695 2 2c-26.07036 28.014907-26.07036 28.014907-37.433594 37.660156-3.292116 2.81595-6.166603 5.842792-8.878906 9.214844-1.889225 2.310263-3.884773 4.216574-6.167969 6.136719-5.439086 4.705483-10.45996 9.820245-15.519531 14.925781a8562.477669 8562.477669 0 0 1-2.925781 2.939453C516.713834 770.249023 514.35583 772.62341 512 775c0-3.916289 1.641424-4.991086 4.301071-7.663223l1.92183-1.884384 2.00531-2.00177c2.199607-2.192395 4.409543-4.374078 6.619445-6.556092a6854.181621 6854.181621 0 0 0 4.590683-4.570633c4.040084-4.022924 8.088632-8.037219 12.13942-12.049362 6.461044-6.402004 12.909708-12.81647 19.357542-19.231775 2.247741-2.23386 4.499307-4.463808 6.751482-6.693197a44735.020895 44735.020895 0 0 0 4.184555-4.154984l1.87889-1.853714C580.044308 704.06833 584.062758 699.602655 588 695Z"/>
  <path  d="M656 394c8.640442 8.45562 18.10872 18.32616 22 30-5.442751-.622029-8.257516-2.876096-11.695313-7.066406C661.535686 410.502667 656 402.250057 656 394Z"/>
  <path  d="M912 485h3c2.376883 6.276816 4.517082 12.450444 6 19l-2.75.125c-3.529562.59361-3.529562.59361-5.5625 3.9375L911 511h-1c-1.145472-5.269171-.736004-9.183282.453125-14.421875.81417-3.838231 1.169147-7.674932 1.546875-11.578125Z"/>
  <path  d="M762 611c3.091543 2.685473 5.51067 5.762702 8 9l2 2-2 2h-4c-1.597656-1.679688-1.597656-1.679688-3.0625-3.875-1.924904-2.849062-3.001811-4.167874-5.9375-6.125-2.331994-.07905-4.668326-.087988-7 0 2.055932-4.111863 7.947342-4.151732 12-3Z"/>
  <path  d="M492 485c6.410073 5.270504 12.178354 11.098117 18 17 1.332217 1.334449 2.665104 2.66823 4 4l-1 2-5.175781-3.027344C505.861804 503.860988 505.861804 503.860988 503 503v-3l-2-1-1-3c-1.52196-1.198139-3.043955-2.396235-4.566406-3.59375C493.262189 490.276262 492.675322 487.903883 492 485Z"/>
  <path  d="M828 834c4.952584 4.157553 9.635606 8.47589 14.210938 13.042969l1.98062 1.970535c1.367627 1.3626 2.733935 2.726524 4.09897 4.09172 2.094374 2.092168 4.196648 4.176182 6.299316 6.26001 1.33252 1.32959 2.664568 2.65965 3.996094 3.990235l1.906341 1.884567 1.751373 1.760696 1.544281 1.539963C865 870 865 870 866 873c-3.052036-1.335445-4.80031-2.671754-6.878906-5.257813-3.381098-3.995925-6.990804-7.683788-10.710938-11.359374l-1.797271-1.78009c-2.483162-2.456059-4.970413-4.9079-7.461762-7.355653-1.83463-1.804616-3.663143-3.61525-5.490967-5.426758l-1.723129-1.682342C830.58638 838.796133 829.287595 837.402453 828 836v-2Z"/>
  <path  d="M413 411c3.653615.158853 5.520208.60859 8.375 2.9375C423 416 423 416 423 418h-2l-1 2-5-2v-3l-4-2 2-2Z"/>
  <path  d="M689 693h3v4c1.539637 1.767158 1.539637 1.767158 3.625 3.3125 3.965198 3.259647 7.131759 6.71453 10.375 10.6875-4.01529-1.662505-7.011572-4.42773-10.1875-7.3125l-1.654297-1.435547C690.964697 699.359198 689.278483 697.368216 689 693Z"/>
  <path  d="M866 451h3v15h-2c-1.095065-3.285195-1.099606-5.736634-1.0625-9.1875l.027344-3.292969L866 451Z"/>
  <path  d="m870 583 2 1c-2.562998 4.366589-4.150196 6.468483-9 8l-2 2 1-4 1.875-.25c2.288526-.54948 2.288526-.54948 3.25-2.6875L868 585l2-2Z"/>
  <path  d="M383 911h14v1h-14v-1Z"/>
  <path  d="M353 545h1v9h-1v-9Z"/>
  <path  d="M282 348v3l-2 1 2-4Z"/>
  <path  d="m997 347 3 3-3-1v-2Z"/>
  <path  d="m895 911 2 1ZM883 911l2 1Z"/>
</svg>